<svg width="284" height="312" viewBox="0 0 284 312" fill="none" xmlns="http://www.w3.org/2000/svg">
<g clip-path="url(#clip0_145_5)">
<path d="M0.911499 299.601H283.089" stroke="#263238" stroke-width="2.5" stroke-miterlimit="10" stroke-linecap="round" stroke-linejoin="round"/>
<path d="M258.316 17.5389V95.6463C258.316 97.4999 256.81 99.0063 254.956 99.0063H154.173C152.32 99.0063 150.813 97.4999 150.813 95.6463V17.5389C150.813 15.679 152.32 14.1726 154.173 14.1726H254.956C256.81 14.1726 258.316 15.6783 258.316 17.5389Z" fill="white" stroke="#263238" stroke-width="2.5" stroke-miterlimit="10" stroke-linecap="round" stroke-linejoin="round"/>
<path d="M258.316 17.5389V23.1641H150.813V17.5389C150.813 15.679 152.32 14.1726 154.173 14.1726H254.956C256.81 14.1726 258.316 15.6783 258.316 17.5389Z" fill="#EA3F7E" stroke="#263238" stroke-width="2.5" stroke-miterlimit="10" stroke-linecap="round" stroke-linejoin="round"/>
<path d="M253.727 17.5592L251.51 19.7775" stroke="white" stroke-width="2.5" stroke-miterlimit="10" stroke-linecap="round" stroke-linejoin="round"/>
<path d="M251.51 17.5592L253.727 19.7775" stroke="white" stroke-width="2.5" stroke-miterlimit="10" stroke-linecap="round" stroke-linejoin="round"/>
<path d="M196.733 28.7445H158.431V67.0464H196.733V28.7445Z" fill="#9ABAE3"/>
<path d="M170.541 52.6901H183.99C185.817 52.6901 187.266 50.9331 187.129 48.8646C186.85 44.6212 185.608 38.1777 180.737 36.7028C180.737 36.7028 176.681 33.3981 172.032 36.7028C167.87 39.6617 167.291 45.5186 167.397 49.2629C167.451 51.1795 168.853 52.6901 170.541 52.6901Z" fill="#263238"/>
<path d="M195.831 66.1489C195.831 66.1489 195.498 56.8599 189.718 53.5419C186.872 51.9081 182.084 52.6144 177.375 52.6326C172.666 52.6501 167.743 51.4734 163.819 54.1845C159.895 56.8956 159.077 66.1706 159.396 66.1706C159.824 66.1706 195.831 66.1489 195.831 66.1489Z" fill="#EA3F7E" stroke="#263238" stroke-width="2.5" stroke-miterlimit="10" stroke-linecap="round" stroke-linejoin="round"/>
<path d="M179.987 52.998C179.987 52.998 181.626 56.365 179.819 56.4889C176.985 56.6828 173.802 51.7856 173.802 51.7856L179.987 52.998Z" fill="#263238"/>
<path d="M170.575 47.8019C168.962 43.2932 170.734 38.5367 174.531 37.178C178.329 35.8193 182.716 38.3736 184.328 42.8823C185.941 47.391 184.17 52.1475 180.372 53.5062C176.574 54.8649 172.188 52.3113 170.575 47.8019Z" fill="#FCD8C3" stroke="#263238" stroke-width="2.5" stroke-miterlimit="10" stroke-linecap="round" stroke-linejoin="round"/>
<path d="M180.371 53.5069C179.312 53.8849 178.203 53.9598 177.124 53.768C177.655 53.7316 178.181 53.6224 178.698 53.4397C182.298 52.1503 183.976 47.6423 182.449 43.366C180.918 39.0904 176.76 36.6705 173.161 37.9578C173.07 37.9914 172.977 38.025 172.89 38.0635C173.382 37.6925 173.932 37.3922 174.532 37.1787C178.329 35.8214 182.716 38.375 184.328 42.8837C185.942 47.3917 184.171 52.1468 180.371 53.5069Z" fill="white"/>
<path d="M170.575 47.8019C168.962 43.2932 170.734 38.5367 174.531 37.178C178.329 35.8193 182.716 38.3736 184.328 42.8823C185.941 47.391 184.17 52.1475 180.372 53.5062C176.574 54.8649 172.188 52.3113 170.575 47.8019Z" stroke="#263238" stroke-width="2.5" stroke-miterlimit="10" stroke-linecap="round" stroke-linejoin="round"/>
<path d="M170.575 47.802C170.575 47.802 176.908 44.6415 176.89 39.4265C176.89 39.4265 180.082 41.7974 183.572 41.2416C183.572 41.2416 180.821 35.5296 174.531 37.1781C168.241 38.8273 170.575 47.802 170.575 47.802Z" fill="#263238"/>
<path d="M204.565 28.7445V93.0549" stroke="#263238" stroke-width="2.5" stroke-miterlimit="10" stroke-linecap="round" stroke-linejoin="round"/>
<path d="M159.961 70.9685H187.644" stroke="#EA3F7E" stroke-width="2.5" stroke-miterlimit="10" stroke-linecap="round" stroke-linejoin="round"/>
<path d="M159.961 74.9473H180.668" stroke="#EA3F7E" stroke-width="2.5" stroke-miterlimit="10" stroke-linecap="round" stroke-linejoin="round"/>
<path d="M159.961 81.2872H193.82" stroke="#EA3F7E" stroke-width="2.5" stroke-miterlimit="10" stroke-linecap="round" stroke-linejoin="round"/>
<path d="M159.961 85.266H193.82" stroke="#EA3F7E" stroke-width="2.5" stroke-miterlimit="10" stroke-linecap="round" stroke-linejoin="round"/>
<path d="M159.961 89.2448H189.61" stroke="#EA3F7E" stroke-width="2.5" stroke-miterlimit="10" stroke-linecap="round" stroke-linejoin="round"/>
<path d="M213.756 31.1952H247.615" stroke="#263238" stroke-width="2.5" stroke-miterlimit="10" stroke-linecap="round" stroke-linejoin="round"/>
<path d="M213.756 35.174H247.615" stroke="#263238" stroke-width="2.5" stroke-miterlimit="10" stroke-linecap="round" stroke-linejoin="round"/>
<path d="M213.756 39.1528H243.406" stroke="#263238" stroke-width="2.5" stroke-miterlimit="10" stroke-linecap="round" stroke-linejoin="round"/>
<path d="M213.756 68.6305H247.615" stroke="#263238" stroke-width="2.5" stroke-miterlimit="10" stroke-linecap="round" stroke-linejoin="round"/>
<path d="M213.756 72.6093H247.615" stroke="#263238" stroke-width="2.5" stroke-miterlimit="10" stroke-linecap="round" stroke-linejoin="round"/>
<path d="M213.756 76.5881H243.406" stroke="#263238" stroke-width="2.5" stroke-miterlimit="10" stroke-linecap="round" stroke-linejoin="round"/>
<path d="M213.756 89.2448H243.406" stroke="#263238" stroke-width="2.5" stroke-miterlimit="10" stroke-linecap="round" stroke-linejoin="round"/>
<path d="M213.756 46.1823H247.615" stroke="#263238" stroke-width="2.5" stroke-miterlimit="10" stroke-linecap="round" stroke-linejoin="round"/>
<path d="M213.756 50.161H247.615" stroke="#263238" stroke-width="2.5" stroke-miterlimit="10" stroke-linecap="round" stroke-linejoin="round"/>
<path d="M213.756 54.1398H247.615" stroke="#263238" stroke-width="2.5" stroke-miterlimit="10" stroke-linecap="round" stroke-linejoin="round"/>
<path d="M213.756 58.1187H247.615" stroke="#263238" stroke-width="2.5" stroke-miterlimit="10" stroke-linecap="round" stroke-linejoin="round"/>
<path d="M213.756 62.0974H236.414" stroke="#263238" stroke-width="2.5" stroke-miterlimit="10" stroke-linecap="round" stroke-linejoin="round"/>
<path d="M40.348 7.33716C48.0567 4.38601 58.1966 5.19798 64.6964 10.585C70.4844 15.3793 72.3777 24.0457 69.6363 30.9604C66.3658 39.2071 56.9376 43.7053 48.3982 42.2772C47.8328 42.1816 48.8914 46.1445 51.354 48.3713C52.321 49.2454 53.2881 50.0681 54.4241 50.6475C49.1741 50.2371 44.0423 48.0111 42.6423 42.364C36.3838 40.4073 27.1561 34.66 26.9195 26.4542C26.6682 17.9288 32.5618 10.3117 40.348 7.33716Z" fill="white" stroke="#263238" stroke-width="2.5" stroke-miterlimit="10" stroke-linecap="round" stroke-linejoin="round"/>
<path d="M44.7581 33.6549L38.5076 27.4045C38.1915 27.0884 38.1915 26.5765 38.5076 26.261L40.4015 24.3671C40.7176 24.051 41.2295 24.051 41.5449 24.3671L45.0247 27.8469C45.1931 28.0153 45.4664 28.0153 45.6349 27.8469L56.2399 17.2418C56.556 16.9257 57.0679 16.9257 57.3833 17.2418L59.2773 19.1358C59.5927 19.4512 59.5927 19.9638 59.2773 20.2792L45.9015 33.6549C45.5854 33.9704 45.0735 33.9704 44.7581 33.6549Z" fill="#EA3F7E"/>
<path d="M80.1999 39.1157C83.0461 38.6691 82.9026 35.5394 85.9567 35.1593C88.5166 34.8408 88.9191 35.6395 91.6799 37.9502C93.5748 39.5364 95.5285 38.5046 98.2011 41.5258C100.09 43.6608 100.165 45.5893 98.8577 48.7701C98.1227 50.5572 99.5745 51.2705 99.5913 53.2438C99.6095 55.3557 98.2858 57.742 94.2034 57.574C92.144 57.4893 92.592 61.2063 88.6146 61.5801C86.4761 61.781 85.4016 59.6355 83.3352 58.7045C82.3489 58.2607 79.4817 59.5627 77.4328 57.4172C75.134 55.0099 77.0373 52.8105 76.317 50.7756C75.6744 48.9598 74.5887 48.1324 74.2534 45.5424C73.8502 42.4309 75.477 39.857 80.1999 39.1157Z" fill="#263238"/>
<path d="M80.5289 37.4476C79.4852 37.2257 80.0116 34.2647 82.1704 33.2595C84.3292 32.2543 85.6851 33.0502 85.6739 33.5472C85.6515 34.5314 83.8749 34.4145 82.9292 35.3266C81.9828 36.2394 81.1057 37.5701 80.5289 37.4476Z" fill="#263238"/>
<path d="M113.232 292.949V311.297H117.987L119.069 305.074L125.201 311.297H158.197L144.038 298.851L143.157 292.949H113.232Z" fill="#EA3F7E" stroke="#263238" stroke-width="2.5" stroke-miterlimit="10" stroke-linecap="round" stroke-linejoin="round"/>
<path d="M143.157 271.39L144.038 298.849C144.038 298.849 147.699 307.016 142.424 307.016C133.681 307.016 113.229 292.949 113.229 292.949L112.067 271.39H143.157Z" fill="#FCD8C3" stroke="#263238" stroke-width="2.5" stroke-miterlimit="10" stroke-linecap="round" stroke-linejoin="round"/>
<path d="M144.354 284.588L144.461 288.39C144.461 288.39 148.328 288.936 149.312 287.345C150.297 285.753 144.354 284.588 144.354 284.588Z" fill="#263238"/>
<path d="M97.1336 140.424H135.63C138.852 159.477 146.373 207.25 146.876 220.066C147.112 226.082 150.332 267.881 151.242 282.788C151.466 286.467 147.742 287.264 147.742 287.264C147.742 287.264 148.186 285.281 143.397 285.148C143.397 285.148 138.6 272.637 137.231 272.716C136.282 272.772 130.73 287.33 130.73 287.33C113.232 292.304 107.788 287.47 107.788 287.47C107.25 285.215 107.539 253.312 107.064 241.433C106.441 225.874 105.53 220.517 105.53 220.517C104.197 213.017 97.1336 140.424 97.1336 140.424Z" fill="#263238"/>
<path d="M130.643 140.424C134.254 162.107 141.339 207.599 141.835 220.297C142.083 226.558 145.419 269.882 146.382 285.642C147.964 286.268 147.744 287.265 147.744 287.265C147.744 287.265 151.465 286.467 151.239 282.786C150.331 267.879 147.111 226.082 146.878 220.063C146.376 207.247 138.85 159.479 135.63 140.423L130.643 140.424Z" fill="white"/>
<path d="M97.1336 140.424H135.63C138.852 159.477 146.373 207.25 146.876 220.066C147.112 226.082 150.332 267.881 151.242 282.788C151.466 286.467 147.742 287.264 147.742 287.264C147.742 287.264 148.186 285.281 143.397 285.148C143.397 285.148 138.6 272.637 137.231 272.716C136.282 272.772 130.73 287.33 130.73 287.33C113.232 292.304 107.788 287.47 107.788 287.47C107.25 285.215 107.539 253.312 107.064 241.433C106.441 225.874 105.53 220.517 105.53 220.517C104.197 213.017 97.1336 140.424 97.1336 140.424Z" stroke="#263238" stroke-width="2.5" stroke-miterlimit="10" stroke-linecap="round" stroke-linejoin="round"/>
<path d="M128.466 161.978C128.466 161.978 134.638 211.929 135.096 219.305C135.596 227.356 136.886 268.654 136.886 268.654" stroke="white" stroke-width="2.5" stroke-miterlimit="10" stroke-linecap="round" stroke-linejoin="round"/>
<path d="M77.8773 292.949V311.298H76.2834L75.2012 305.074L71.004 311.298H40.1753L47.071 298.851L47.953 292.949H77.8773Z" fill="#EA3F7E" stroke="#263238" stroke-width="2.5" stroke-miterlimit="10" stroke-linecap="round" stroke-linejoin="round"/>
<path d="M51.1758 271.391L47.0703 298.849C47.0703 298.849 47.0703 307.016 54.7556 307.016C66.6227 307.016 77.8801 292.949 77.8801 292.949L82.267 271.391H51.1758Z" fill="#FCD8C3" stroke="#263238" stroke-width="2.5" stroke-miterlimit="10" stroke-linecap="round" stroke-linejoin="round"/>
<path d="M112.924 140.424H69.2687C64.5444 154.522 55.1287 202.611 52.3371 217.632C51.2374 223.55 41.8126 267.725 40.9026 282.631C40.6786 286.31 44.3746 287.339 44.3746 287.339C44.3746 287.339 42.0037 285.245 48.9988 285.148C48.9988 285.148 54.7528 272.636 56.1213 272.716C57.0705 272.771 62.6222 287.329 62.6222 287.329C80.1201 292.304 85.564 287.469 85.564 287.469C85.564 287.469 93.0512 246.738 93.5293 234.859C93.9619 224.119 94.8047 219.873 94.8047 219.873C96.1396 212.373 112.924 140.424 112.924 140.424Z" fill="#263238"/>
<path d="M81.9996 287.472C81.9996 287.472 80.0389 289.212 74.7007 289.521C82.7563 289.961 85.5626 287.472 85.5626 287.472C85.5626 287.472 93.0505 246.741 93.5321 234.86C93.9654 224.122 94.8047 219.87 94.8047 219.87C95.5544 215.674 100.167 191.315 105.326 170.665C98.5021 191.315 91.9914 215.675 91.2417 219.87C91.2417 219.87 90.3954 224.122 89.9621 234.86C89.4875 246.741 81.9996 287.472 81.9996 287.472Z" fill="white"/>
<path d="M112.924 140.424H69.2687C64.5444 154.522 55.1287 202.611 52.3371 217.632C51.2374 223.55 41.8126 267.725 40.9026 282.631C40.6786 286.31 44.3746 287.339 44.3746 287.339C44.3746 287.339 42.0037 285.245 48.9988 285.148C48.9988 285.148 54.7528 272.636 56.1213 272.716C57.0705 272.771 62.6222 287.329 62.6222 287.329C80.1201 292.304 85.564 287.469 85.564 287.469C85.564 287.469 93.0512 246.738 93.5293 234.859C93.9619 224.119 94.8047 219.873 94.8047 219.873C96.1396 212.373 112.924 140.424 112.924 140.424Z" stroke="#263238" stroke-width="2.5" stroke-miterlimit="10" stroke-linecap="round" stroke-linejoin="round"/>
<path d="M74.9689 161.978C74.9689 161.978 65.6484 207.55 63.8956 218.015C62.5628 225.971 57.1125 268.653 57.1125 268.653" stroke="white" stroke-width="2.5" stroke-miterlimit="10" stroke-linecap="round" stroke-linejoin="round"/>
<path d="M49.8514 284.588L49.2256 288.569C49.2256 288.569 44.691 289.124 43.7061 287.532C42.7219 285.941 49.8514 284.588 49.8514 284.588Z" fill="#263238"/>
<path d="M116.428 67.8402C121.182 67.9984 128.025 69.1583 132.533 73.863C137.041 78.5677 146.421 101.447 146.421 101.447C146.421 101.447 165.962 112.04 166.596 113.136C167.23 114.232 159.898 134.35 151.93 139.4C151.93 139.4 125.967 124.382 121.909 116.986C117.852 109.59 111.64 90.222 111.64 90.222" fill="#EA3F7E"/>
<path d="M161.633 126.547C164.013 121.15 165.392 116.6 165.084 116.075C164.391 114.878 143.041 103.3 143.041 103.3C143.041 103.3 132.793 78.3031 127.865 73.1581C125.443 70.6381 122.412 69.0421 119.332 68.0621C123.7 68.5661 128.88 70.0571 132.534 73.8651C137.042 78.5691 146.422 101.445 146.422 101.445C146.422 101.445 165.959 112.036 166.596 113.135C166.946 113.737 164.881 120.107 161.633 126.547Z" fill="white"/>
<path d="M116.428 67.8402C121.182 67.9984 128.025 69.1583 132.533 73.863C137.041 78.5677 146.421 101.447 146.421 101.447C146.421 101.447 165.962 112.04 166.596 113.136C167.23 114.232 159.898 134.35 151.93 139.4C151.93 139.4 125.967 124.382 121.909 116.986C117.852 109.59 111.64 90.222 111.64 90.222" stroke="#263238" stroke-width="2.5" stroke-miterlimit="10" stroke-linecap="round" stroke-linejoin="round"/>
<path d="M161.11 110.047C161.11 110.047 158.906 122.794 151.93 129.984" stroke="#263238" stroke-width="2.5" stroke-miterlimit="10" stroke-linecap="round" stroke-linejoin="round"/>
<path d="M116.838 67.9438C112.328 67.402 107.442 67.3859 102.538 67.766C91.395 68.6298 83.3569 66.6089 78.2189 73.4675C71.1237 82.9385 69.3513 121.415 69.3513 121.415C69.3513 121.415 58.4495 140.534 64.8118 145.772C64.8118 145.772 65.2535 141.311 70.2823 142.28C126.412 153.104 136.212 141.606 136.212 141.606C136.212 141.606 139.264 140.385 136.306 133.035C136.306 133.035 130.778 118.655 129.406 104.979C129.406 104.979 131.643 103.163 129.717 97.4215C128.928 95.0681 127.511 90.5391 125.64 85.7511" fill="#EA3F7E"/>
<path d="M116.838 67.9438C112.328 67.402 107.442 67.3859 102.538 67.766C91.395 68.6298 83.3569 66.6089 78.2189 73.4675C71.1237 82.9385 69.3513 121.415 69.3513 121.415C69.3513 121.415 58.4495 140.534 64.8118 145.772C64.8118 145.772 65.2535 141.311 70.2823 142.28C126.412 153.104 136.212 141.606 136.212 141.606C136.212 141.606 139.264 140.385 136.306 133.035C136.306 133.035 130.778 118.655 129.406 104.979C129.406 104.979 131.643 103.163 129.717 97.4215C128.928 95.0681 127.511 90.5391 125.64 85.7511" stroke="#263238" stroke-width="2.5" stroke-miterlimit="10" stroke-linecap="round" stroke-linejoin="round"/>
<path d="M107.345 91.223C101.79 90.9143 94.6514 74.7366 91.8983 67.9389C94.8705 67.8899 98.2172 68.1013 102.538 67.7681C105.721 67.5245 108.418 67.6141 110.716 67.955C111.56 75.4352 112.746 91.5156 107.345 91.223Z" fill="#FCD8C3" stroke="#263238" stroke-width="2.5" stroke-miterlimit="10" stroke-linecap="round" stroke-linejoin="round"/>
<path d="M63.9676 146.15C64.5787 147.216 66.3385 147.038 66.3385 147.038L68.3965 142.156C68.3965 142.156 62.9148 144.313 63.9676 146.15Z" fill="#263238"/>
<path d="M106.451 69.5335C106.451 69.5335 108.6 73.9477 106.23 74.1094C102.514 74.3635 98.3417 67.9431 98.3417 67.9431L106.451 69.5335Z" fill="#263238"/>
<path d="M94.1109 62.7218C91.9969 56.811 94.3188 50.5754 99.2979 48.7939C104.277 47.0131 110.028 50.3612 112.142 56.272C114.256 62.1835 111.934 68.4191 106.955 70.1999C101.976 71.9807 96.2256 68.6326 94.1109 62.7218Z" fill="#FCD8C3" stroke="#263238" stroke-width="2.5" stroke-miterlimit="10" stroke-linecap="round" stroke-linejoin="round"/>
<path d="M106.955 70.2006C105.565 70.6962 104.111 70.7949 102.697 70.5429C103.393 70.4946 104.082 70.3525 104.761 70.1124C109.48 68.4219 111.681 62.5118 109.678 56.9062C107.671 51.3006 102.22 48.1289 97.5018 49.8159C97.3835 49.86 97.261 49.9034 97.1469 49.9545C97.7923 49.4687 98.5132 49.0746 99.2993 48.7946C104.276 47.0152 110.028 50.3626 112.142 56.2734C114.257 62.1842 111.935 68.4177 106.955 70.2006Z" fill="white"/>
<path d="M94.1109 62.7218C91.9969 56.811 94.3188 50.5754 99.2979 48.7939C104.277 47.0131 110.028 50.3612 112.142 56.272C114.256 62.1835 111.934 68.4191 106.955 70.1999C101.976 71.9807 96.2256 68.6326 94.1109 62.7218Z" stroke="#263238" stroke-width="2.5" stroke-miterlimit="10" stroke-linecap="round" stroke-linejoin="round"/>
<path d="M94.1109 62.7219C94.1109 62.7219 106.966 60.8613 107.344 49.9938C107.344 49.9938 99.9657 45.8078 95.4633 51.6227C90.9602 57.439 94.1109 62.7219 94.1109 62.7219Z" fill="#263238"/>
<path d="M104.042 88.1131L101.033 92.2457L126.969 111.13L129.978 106.997L104.042 88.1131Z" fill="#9ABAE3" stroke="#263238" stroke-width="2.5" stroke-miterlimit="10" stroke-linecap="round" stroke-linejoin="round"/>
<path d="M100.425 85.4783L97.416 89.611L101.032 92.2438L104.041 88.1112L100.425 85.4783Z" fill="#EA3F7E" stroke="#263238" stroke-width="2.5" stroke-miterlimit="10" stroke-linecap="round" stroke-linejoin="round"/>
<path d="M126.972 111.121L132.462 111.957L129.98 106.989L126.972 111.121Z" fill="white" stroke="#263238" stroke-width="2.5" stroke-miterlimit="10" stroke-linecap="round" stroke-linejoin="round"/>
<path d="M122.396 96.4786C122.396 96.4786 124.743 97.6322 125.548 99.2093C126.541 101.151 126.41 102.968 126.41 102.968C126.41 102.968 128.629 106.53 126.88 108.935C125.608 110.689 121.232 115.335 118.087 118.301C114.941 121.268 107.767 124.215 107.767 124.215L94.1306 110.551L98.2137 106.507C98.8493 105.719 103.653 97.7407 105.974 95.486C107.603 93.9033 116.958 90.6518 119.848 92.1589C122.429 93.5022 122.396 96.4786 122.396 96.4786Z" fill="#FCD8C3" stroke="#263238" stroke-width="2.5" stroke-miterlimit="10" stroke-linecap="round" stroke-linejoin="round"/>
<path d="M122.394 96.4751C119.25 95.4706 114.309 97.4208 114.309 97.4208" stroke="#263238" stroke-width="2.5" stroke-miterlimit="10" stroke-linecap="round" stroke-linejoin="round"/>
<path d="M126.412 102.97C124.249 101.561 120.635 103.395 120.635 103.395" stroke="#263238" stroke-width="2.5" stroke-miterlimit="10" stroke-linecap="round" stroke-linejoin="round"/>
<path d="M89.0185 68.2805C79.7323 69.3914 72.9388 71.8379 69.1014 79.4287C63.4944 90.5216 57.6361 129.321 65.8184 137.15C67.7602 139.008 77.612 142.971 83.5865 141.142C99.2322 136.354 115.694 124.128 115.694 124.128C115.694 124.128 111.941 126.395 108.863 116.006C105.972 106.244 99.3435 101.017 99.3435 101.017C99.3435 101.017 91.6372 104.317 84.9823 109.172C79.3655 113.27 76.7825 115.857 76.7825 115.857" fill="#EA3F7E"/>
<path d="M89.0185 68.2805C79.7323 69.3914 72.9388 71.8379 69.1014 79.4287C63.4944 90.5216 57.6361 129.321 65.8184 137.15C67.7602 139.008 77.612 142.971 83.5865 141.142C99.2322 136.354 115.694 124.128 115.694 124.128C115.694 124.128 111.941 126.395 108.863 116.006C105.972 106.244 99.3435 101.017 99.3435 101.017C99.3435 101.017 91.6372 104.317 84.9823 109.172C79.3655 113.27 76.7825 115.857 76.7825 115.857" stroke="#263238" stroke-width="2.5" stroke-miterlimit="10" stroke-linecap="round" stroke-linejoin="round"/>
<path d="M112.233 122.988L115.875 120.515C115.875 120.515 117.31 123.677 116.047 124.451C114.784 125.226 112.233 122.988 112.233 122.988Z" fill="#263238"/>
<path d="M84.8513 109.018C84.8513 109.018 83.5066 107.338 78.9958 107.891" stroke="#263238" stroke-width="2.5" stroke-miterlimit="10" stroke-linecap="round" stroke-linejoin="round"/>
<path d="M87.9622 106.989C87.9622 106.989 87.475 104.855 88.1344 96.1615" stroke="#263238" stroke-width="2.5" stroke-miterlimit="10" stroke-linecap="round" stroke-linejoin="round"/>
<path d="M93.847 103.701C93.847 103.701 98.6035 107.375 102.034 115.611C104.661 121.917 105.548 124.878 106.764 125.499" stroke="#263238" stroke-width="2.5" stroke-miterlimit="10" stroke-linecap="round" stroke-linejoin="round"/>
<path d="M114.606 138.171L154.717 138.178L165.857 85.2499L125.745 85.2422L114.606 138.171Z" fill="#9ABAE3" stroke="#263238" stroke-width="2.5" stroke-miterlimit="10" stroke-linecap="round" stroke-linejoin="round"/>
<path d="M135.391 88.0065L154.997 88.01L156.202 82.2833L136.596 82.2798L135.391 88.0065Z" fill="#263238" stroke="#263238" stroke-width="2.5" stroke-miterlimit="10" stroke-linecap="round" stroke-linejoin="round"/>
<path d="M134.038 110.158L147.772 102.307" stroke="white" stroke-width="2.5" stroke-miterlimit="10" stroke-linecap="round" stroke-linejoin="round"/>
<path d="M128.313 118.077L155.423 102.583" stroke="white" stroke-width="2.5" stroke-miterlimit="10" stroke-linecap="round" stroke-linejoin="round"/>
<path d="M157.45 128.371C157.45 128.371 164.271 124.128 165.375 120.853C166.268 118.203 169.443 109.888 166.702 104.729C163.632 98.9503 159.651 92.3696 157.868 93.9523C154.789 96.6837 160.521 105.341 160.171 105.778C159.821 106.216 152.213 97.159 150.479 99.4515C148.137 102.548 156.233 111.201 156.273 111.65C156.313 112.1 148.462 106.419 147.459 108.99C146.302 111.955 154.589 117.096 154.733 118.013C155.913 125.5 157.45 128.371 157.45 128.371Z" fill="#FCD8C3" stroke="#263238" stroke-width="2.5" stroke-miterlimit="10" stroke-linecap="round" stroke-linejoin="round"/>
</g>
<defs>
<clipPath id="clip0_145_5">
<rect width="282.177" height="310.65" fill="white" transform="translate(0.911499 0.647461)"/>
</clipPath>
</defs>
</svg>
