<svg width="91" height="110" viewBox="0 0 91 110" fill="none" xmlns="http://www.w3.org/2000/svg">
<path d="M36.5282 110C52.8295 110 66.0443 108.701 66.0443 107.099C66.0443 105.497 52.8295 104.198 36.5282 104.198C20.2269 104.198 7.01212 105.497 7.01212 107.099C7.01212 108.701 20.2269 110 36.5282 110Z" fill="#EFEFEF"/>
<path d="M32.8784 60.6373C32.8784 60.6373 52.8684 44.6483 72.9352 42.551L79.0563 18.2659C79.7375 15.5634 78.1033 12.869 75.4009 12.1879L27.6721 0.157518C24.9696 -0.523647 22.2137 1.06411 21.5326 3.76665L9.91737 49.8483L22.0839 41.7236L32.8784 60.6373ZM42.5838 10.3772L42.5886 10.3585C42.8133 9.46687 43.7246 8.92151 44.6163 9.1463L56.0864 12.0374C56.9782 12.2622 57.5197 13.1737 57.295 14.0654L57.2903 14.084C57.0654 14.9757 56.1638 15.4928 55.2721 15.268L43.802 12.3769C42.9103 12.1521 42.3591 11.2688 42.5838 10.3772Z" fill="#10B981"/>
<path d="M30.7564 75.2632L9.91733 49.8483L0.153371 88.5854C-0.527703 91.2876 1.12419 94.0795 3.82673 94.7606L51.5555 106.791C54.2578 107.472 56.996 105.787 57.6772 103.084L70.0872 53.8494C70.0872 53.8494 79.6126 46.1585 90.7746 46.5364C61.7699 37.9803 30.7564 75.2632 30.7564 75.2632ZM35.5784 91.9359C34.8467 94.8388 31.9001 96.599 28.9971 95.8674C26.0942 95.1355 24.3339 92.1891 25.0657 89.286C25.7974 86.3831 28.7439 84.6228 31.6469 85.3547C34.5499 86.0863 36.3101 89.0329 35.5784 91.9359Z" fill="#EA3F7E"/>
</svg>
