<svg width="22" height="30" viewBox="0 0 22 30" fill="none" xmlns="http://www.w3.org/2000/svg">
<g clip-path="url(#clip0_19_653)">
<path d="M17 6C17 2.691 14.309 0 11 0C7.69101 0 5.00001 2.691 5.00001 6C5.00001 9.309 7.69101 12 11 12C14.309 12 17 9.309 17 6ZM7.00001 6C7.00001 3.794 8.79401 2 11 2C13.206 2 15 3.794 15 6C15 8.206 13.206 10 11 10C8.79401 10 7.00001 8.206 7.00001 6ZM0.213013 24.137V27C0.213013 28.654 1.55901 30 3.21301 30H18.787C20.441 30 21.787 28.654 21.787 27V24.137C21.787 18.188 16.948 13.35 11 13.35C5.05201 13.35 0.213013 18.188 0.213013 24.137ZM11 15.35C15.846 15.35 19.787 19.291 19.787 24.137V27C19.787 27.551 19.339 28 18.787 28H3.21301C2.66101 28 2.21301 27.551 2.21301 27V24.137C2.21301 19.291 6.15401 15.35 11 15.35Z" fill="#414955"/>
</g>
<defs>
<clipPath id="clip0_19_653">
<rect width="21.574" height="30" fill="white" transform="translate(0.213013)"/>
</clipPath>
</defs>
</svg>
