<svg width="44" height="44" viewBox="0 0 44 44" fill="none" xmlns="http://www.w3.org/2000/svg">
<path d="M35.1519 25.3L34.6844 11.2407C34.6523 10.6561 34.3975 10.106 33.9723 9.7035C33.5471 9.30101 32.9839 9.0767 32.3985 9.0767C31.813 9.0767 31.2498 9.30101 30.8246 9.7035C30.3994 10.106 30.1446 10.6561 30.1125 11.2407L29.6381 25.355C28.1875 27.6169 28.7581 28.7169 29.5625 29.8169C29.8065 30.1078 29.9994 30.4379 30.1331 30.7932C30.5113 32.0375 29.0606 33.5432 28.4763 33.9763C28.3693 34.0599 28.2895 34.1732 28.2469 34.3021C28.2042 34.431 28.2007 34.5696 28.2368 34.7005C28.2728 34.8313 28.3467 34.9486 28.4493 35.0375C28.5519 35.1264 28.6785 35.183 28.8131 35.2C29.189 35.2521 29.5681 35.2774 29.9475 35.2757C31.1311 35.3366 32.3072 35.0564 33.3362 34.4684C34.3651 33.8803 35.2035 33.0091 35.7517 31.9584C36.2999 30.9076 36.5348 29.7216 36.4284 28.5412C36.3221 27.3609 35.879 26.2359 35.1519 25.3ZM31.4806 11.2888C31.4806 11.0463 31.577 10.8137 31.7485 10.6422C31.9199 10.4708 32.1525 10.3744 32.395 10.3744C32.6375 10.3744 32.8701 10.4708 33.0416 10.6422C33.2131 10.8137 33.3094 11.0463 33.3094 11.2888L33.7631 24.8669H31.0131L31.4806 11.2888ZM34.5194 31.2607C34.1471 32.0177 33.5779 32.6604 32.8713 33.1213C32.1648 33.5823 31.3472 33.8443 30.5044 33.88C31.1919 33.0069 31.8794 31.735 31.4669 30.3944C31.2898 29.893 31.0244 29.4273 30.6831 29.0194C30.1194 28.27 29.7825 27.7819 30.6831 26.2694H34.1206C34.6475 26.9807 34.9641 27.8256 35.0346 28.708C35.1051 29.5903 34.9266 30.4747 34.5194 31.2607ZM27.115 19.4219C27.6751 18.2285 27.8926 16.9029 27.7433 15.593C27.594 14.2832 27.0837 13.0406 26.2694 12.0038C25.4356 10.8398 24.2989 9.92636 22.9827 9.36278C21.6664 8.79919 20.2209 8.60695 18.8031 8.80692C15.4873 9.32249 12.4884 11.0709 10.4061 13.7024C8.3239 16.3338 7.31188 19.6544 7.57251 23C7.83313 26.3455 9.34718 29.4693 11.8118 31.7466C14.2765 34.0238 17.51 35.2867 20.8656 35.2825C21.5935 35.284 22.3203 35.2242 23.0381 35.1038C23.5294 35.0284 23.994 34.8309 24.3891 34.5294C24.7843 34.2279 25.0975 33.8321 25.3 33.3782C25.5115 32.9181 25.6076 32.4135 25.58 31.908C25.5525 31.4024 25.4021 30.9112 25.1419 30.4769C25.0988 30.3992 25.0456 30.3276 24.9838 30.2638C21.4569 26.9707 23.0656 24.9494 25.1006 22.3919C25.8752 21.4759 26.5504 20.4803 27.115 19.4219ZM23.9525 31.1988C24.0967 31.4392 24.1818 31.7103 24.2009 31.9899C24.22 32.2696 24.1726 32.5498 24.0625 32.8075C23.9506 33.0549 23.7788 33.2705 23.5628 33.4349C23.3468 33.5993 23.0932 33.7074 22.825 33.7494C20.1518 34.1942 17.4068 33.7166 15.0409 32.395C12.6751 31.0734 10.8291 28.9864 9.80622 26.4768C8.78337 23.9673 8.6445 21.1845 9.41241 18.5856C10.1803 15.9867 11.8094 13.7263 14.0319 12.1757C15.5149 11.1285 17.2214 10.4411 19.0163 10.1682C19.321 10.1194 19.6289 10.0941 19.9375 10.0925C20.963 10.1095 21.9701 10.3672 22.8777 10.8449C23.7853 11.3225 24.568 12.0068 25.1625 12.8425C25.8229 13.6806 26.237 14.6859 26.3584 15.7459C26.4798 16.8059 26.3038 17.8788 25.85 18.8444C25.3261 19.8142 24.6991 20.7247 23.98 21.56C21.9381 24.1382 19.5938 27.0738 23.9525 31.1988Z" fill="white"/>
<path d="M20.9 12.1274C20.4712 11.7769 19.9642 11.5352 19.4219 11.4228C18.8796 11.3105 18.3182 11.3308 17.7855 11.482C17.2527 11.6333 16.7644 11.911 16.3621 12.2916C15.9598 12.6721 15.6554 13.1443 15.4748 13.6678C15.2942 14.1913 15.2427 14.7507 15.3248 15.2984C15.4069 15.846 15.6201 16.3658 15.9463 16.8133C16.2724 17.2609 16.7019 17.623 17.1981 17.8689C17.6943 18.1148 18.2426 18.2372 18.7963 18.2256H19.2294C19.8918 18.1305 20.5122 17.8441 21.0142 17.4015C21.5162 16.9589 21.8781 16.3794 22.0555 15.7341C22.2329 15.0887 22.2181 14.4057 22.0128 13.7687C21.8075 13.1317 21.4208 12.5684 20.9 12.1481V12.1274ZM20.4119 16.0668C20.2459 16.2807 20.0387 16.4591 19.8025 16.5913C19.5663 16.7236 19.306 16.8071 19.0369 16.8368C18.6429 16.8713 18.2472 16.7918 17.8971 16.6077C17.5471 16.4236 17.2573 16.1427 17.0624 15.7985C16.8675 15.4544 16.7756 15.0614 16.7978 14.6665C16.82 14.2716 16.9553 13.8914 17.1875 13.5712C17.3515 13.3553 17.5582 13.1754 17.7948 13.043C18.0314 12.9105 18.2927 12.8282 18.5625 12.8012C18.6472 12.7944 18.7322 12.7944 18.8169 12.8012C19.2671 12.8037 19.7041 12.9534 20.0613 13.2274C20.4898 13.5658 20.7667 14.0603 20.8313 14.6024C20.89 15.1268 20.7393 15.6531 20.4119 16.0668ZM13.9219 22.9281C14.0409 22.9349 14.1603 22.9349 14.2794 22.9281C15.0264 22.8816 15.7261 22.5462 16.2302 21.9929C16.7342 21.4395 17.0031 20.7117 16.9799 19.9636C16.9566 19.2154 16.6431 18.5057 16.1057 17.9847C15.5682 17.4637 14.8491 17.1724 14.1006 17.1724C13.3521 17.1724 12.633 17.4637 12.0956 17.9847C11.5582 18.5057 11.2446 19.2154 11.2214 19.9636C11.1982 20.7117 11.467 21.4395 11.9711 21.9929C12.4752 22.5462 13.1748 22.8816 13.9219 22.9281ZM13.75 18.5624H13.9356C14.3241 18.5488 14.7025 18.6872 14.9904 18.9483C15.2783 19.2095 15.4529 19.5726 15.4771 19.9605C15.5013 20.3485 15.3732 20.7305 15.1199 21.0254C14.8667 21.3202 14.5084 21.5046 14.1213 21.5393C13.7293 21.588 13.3341 21.4792 13.0222 21.2369C12.7104 20.9947 12.5073 20.6386 12.4575 20.2468C12.4305 20.0512 12.4426 19.8521 12.4931 19.6612C12.5436 19.4702 12.6315 19.2912 12.7518 19.1345C12.872 18.9779 13.0222 18.8466 13.1935 18.7484C13.3649 18.6502 13.554 18.587 13.75 18.5624ZM16.9813 26.2212C16.9189 25.7267 16.715 25.2608 16.3941 24.8796C16.0731 24.4983 15.6488 24.218 15.1722 24.0723C14.6956 23.9266 14.187 23.9218 13.7078 24.0585C13.2285 24.1951 12.799 24.4674 12.4708 24.8425C12.1427 25.2176 11.93 25.6796 11.8584 26.1728C11.7867 26.6659 11.8592 27.1693 12.067 27.6223C12.2748 28.0753 12.6091 28.4585 13.0297 28.7259C13.4503 28.9933 13.9392 29.1334 14.4375 29.1293H14.7675C15.4458 29.0354 16.0594 28.6768 16.4742 28.1319C16.889 27.587 17.0713 26.9001 16.9813 26.2212ZM14.5681 27.7406C14.4076 27.7668 14.2435 27.7604 14.0855 27.7218C13.9275 27.6832 13.7789 27.6131 13.6486 27.5158C13.5183 27.4185 13.409 27.2959 13.3272 27.1553C13.2453 27.0148 13.1927 26.8591 13.1723 26.6978C13.152 26.5364 13.1644 26.3726 13.2088 26.2162C13.2531 26.0597 13.3286 25.9138 13.4307 25.7872C13.5327 25.6605 13.6593 25.5558 13.8027 25.4791C13.9462 25.4025 14.1036 25.3556 14.2656 25.3412H14.4169C14.7289 25.3348 15.0314 25.4492 15.261 25.6605C15.4907 25.8719 15.6298 26.1638 15.6494 26.4752C15.6689 26.7867 15.5673 27.0937 15.3658 27.3321C15.1643 27.5704 14.8785 27.7217 14.5681 27.7543V27.7406ZM18.9888 27.9399C18.3613 28.0256 17.7929 28.3551 17.4068 28.857C17.0207 29.3589 16.8481 29.9928 16.9263 30.6212C16.9956 31.1928 17.2688 31.7202 17.6956 32.1066C18.1225 32.4931 18.6744 32.7126 19.25 32.7249H19.5594C20.1723 32.6229 20.722 32.2876 21.0934 31.7894C21.4648 31.2912 21.629 30.6686 21.5517 30.0521C21.4744 29.4355 21.1616 28.8727 20.6787 28.4816C20.1959 28.0905 19.5804 27.9013 18.9613 27.9537L18.9888 27.9399ZM19.415 31.3774C19.1415 31.4112 18.8658 31.3349 18.6485 31.1653C18.4313 30.9958 18.2903 30.7469 18.2566 30.4734C18.2228 30.1999 18.2991 29.9242 18.4687 29.7069C18.6382 29.4897 18.8871 29.3487 19.1606 29.3149H19.2913C19.5178 29.3139 19.7381 29.3889 19.9169 29.5281C20.0749 29.6538 20.1926 29.8232 20.2553 30.0151C20.3179 30.2071 20.3228 30.4133 20.2694 30.608C20.2159 30.8028 20.1065 30.9776 19.9546 31.1107C19.8027 31.2438 19.6151 31.3294 19.415 31.3568V31.3774Z" fill="white"/>
</svg>
