<svg width="30" height="28" viewBox="0 0 30 28" fill="none" xmlns="http://www.w3.org/2000/svg">
<path d="M28.1519 17.3L27.6844 3.24067C27.6523 2.65608 27.3975 2.10599 26.9723 1.7035C26.5471 1.30101 25.9839 1.0767 25.3985 1.0767C24.813 1.0767 24.2498 1.30101 23.8246 1.7035C23.3994 2.10599 23.1446 2.65608 23.1125 3.24067L22.6381 17.355C21.1875 19.6169 21.7581 20.7169 22.5625 21.8169C22.8065 22.1078 22.9994 22.4379 23.1331 22.7932C23.5113 24.0375 22.0606 25.5432 21.4763 25.9763C21.3693 26.0599 21.2895 26.1732 21.2469 26.3021C21.2042 26.431 21.2007 26.5696 21.2368 26.7005C21.2728 26.8313 21.3467 26.9486 21.4493 27.0375C21.5519 27.1264 21.6785 27.183 21.8131 27.2C22.189 27.2521 22.5681 27.2774 22.9475 27.2757C24.1311 27.3366 25.3072 27.0564 26.3362 26.4684C27.3651 25.8803 28.2035 25.0091 28.7517 23.9584C29.2999 22.9076 29.5348 21.7216 29.4284 20.5412C29.3221 19.3609 28.879 18.2359 28.1519 17.3ZM24.4806 3.28879C24.4806 3.04629 24.577 2.81371 24.7485 2.64223C24.9199 2.47075 25.1525 2.37442 25.395 2.37442C25.6375 2.37442 25.8701 2.47075 26.0416 2.64223C26.2131 2.81371 26.3094 3.04629 26.3094 3.28879L26.7631 16.8669H24.0131L24.4806 3.28879ZM27.5194 23.2607C27.1471 24.0177 26.5779 24.6604 25.8713 25.1213C25.1648 25.5823 24.3472 25.8443 23.5044 25.88C24.1919 25.0069 24.8794 23.735 24.4669 22.3944C24.2898 21.893 24.0244 21.4273 23.6831 21.0194C23.1194 20.27 22.7825 19.7819 23.6831 18.2694H27.1206C27.6475 18.9807 27.9641 19.8256 28.0346 20.708C28.1051 21.5903 27.9266 22.4747 27.5194 23.2607ZM20.115 11.4219C20.6751 10.2285 20.8926 8.90289 20.7433 7.59304C20.594 6.28319 20.0837 5.04057 19.2694 4.00379C18.4356 2.83976 17.2989 1.92636 15.9827 1.36278C14.6664 0.799191 13.2209 0.606948 11.8031 0.806918C8.48732 1.32249 5.48838 3.07086 3.40614 5.70235C1.3239 8.33384 0.311884 11.6544 0.572507 15C0.833129 18.3455 2.34718 21.4693 4.81182 23.7466C7.27646 26.0238 10.51 27.2867 13.8656 27.2825C14.5935 27.284 15.3203 27.2242 16.0381 27.1038C16.5294 27.0284 16.994 26.8309 17.3891 26.5294C17.7843 26.2279 18.0975 25.8321 18.3 25.3782C18.5115 24.9181 18.6076 24.4135 18.58 23.908C18.5525 23.4024 18.4021 22.9112 18.1419 22.4769C18.0988 22.3992 18.0456 22.3276 17.9838 22.2638C14.4569 18.9707 16.0656 16.9494 18.1006 14.3919C18.8752 13.4759 19.5504 12.4803 20.115 11.4219ZM16.9525 23.1988C17.0967 23.4392 17.1818 23.7103 17.2009 23.9899C17.22 24.2696 17.1726 24.5498 17.0625 24.8075C16.9506 25.0549 16.7788 25.2705 16.5628 25.4349C16.3468 25.5993 16.0932 25.7074 15.825 25.7494C13.1518 26.1942 10.4068 25.7166 8.04091 24.395C5.67505 23.0734 3.82906 20.9864 2.80622 18.4768C1.78337 15.9673 1.6445 13.1845 2.41241 10.5856C3.18033 7.9867 4.80936 5.72627 7.03189 4.17567C8.51488 3.12846 10.2214 2.44113 12.0163 2.16817C12.321 2.11937 12.6289 2.09409 12.9375 2.09254C13.963 2.10948 14.9701 2.36718 15.8777 2.84486C16.7853 3.32254 17.568 4.00683 18.1625 4.84254C18.8229 5.68056 19.237 6.68585 19.3584 7.74587C19.4798 8.80589 19.3038 9.87878 18.85 10.8444C18.3261 11.8142 17.6991 12.7247 16.98 13.56C14.9381 16.1382 12.5938 19.0738 16.9525 23.1988Z" fill="white"/>
</svg>
