<svg width="12" height="22" viewBox="0 0 12 22" fill="none" xmlns="http://www.w3.org/2000/svg">
<path d="M9.9 1.12744C9.47125 0.776935 8.96415 0.535209 8.42188 0.422834C7.87961 0.310459 7.31821 0.330763 6.78548 0.482018C6.25274 0.633273 5.76443 0.911 5.36212 1.29156C4.9598 1.67213 4.65539 2.14426 4.47478 2.66777C4.29418 3.19129 4.24273 3.75069 4.32482 4.29836C4.40691 4.84604 4.62011 5.36577 4.94626 5.81333C5.27242 6.26089 5.70188 6.62302 6.19809 6.86891C6.69431 7.11479 7.24258 7.23715 7.79625 7.22557H8.22938C8.89185 7.13047 9.51216 6.84407 10.0142 6.40148C10.5162 5.9589 10.8781 5.37939 11.0555 4.73407C11.2329 4.08874 11.2181 3.40567 11.0128 2.76866C10.8075 2.13165 10.4208 1.56842 9.9 1.14807V1.12744ZM9.41188 5.06682C9.24593 5.2807 9.03871 5.45907 8.80251 5.59134C8.56631 5.72361 8.30595 5.80709 8.03688 5.83682C7.64285 5.8713 7.24722 5.79176 6.89713 5.60767C6.54705 5.42358 6.25729 5.14271 6.06237 4.79853C5.86746 4.45436 5.77563 4.06139 5.79781 3.66648C5.82 3.27157 5.95527 2.89137 6.1875 2.57119C6.35149 2.35526 6.55822 2.17544 6.79479 2.04296C7.03137 1.91048 7.29271 1.82818 7.5625 1.80119C7.64716 1.79439 7.73222 1.79439 7.81688 1.80119C8.26707 1.80366 8.7041 1.95335 9.06125 2.22744C9.48981 2.56578 9.76671 3.06025 9.83125 3.60244C9.89003 4.12677 9.7393 4.65309 9.41188 5.06682ZM2.92188 11.9281C3.04095 11.9349 3.16031 11.9349 3.27938 11.9281C4.02644 11.8816 4.72609 11.5462 5.23015 10.9929C5.73421 10.4395 6.0031 9.71172 5.97986 8.96357C5.95663 8.21543 5.6431 7.5057 5.10567 6.98471C4.56825 6.46372 3.84913 6.17237 3.10063 6.17237C2.35212 6.17237 1.63301 6.46372 1.09558 6.98471C0.558155 7.5057 0.244625 8.21543 0.221391 8.96357C0.198156 9.71172 0.467042 10.4395 0.971103 10.9929C1.47516 11.5462 2.17481 11.8816 2.92188 11.9281ZM2.75 7.56244H2.93563C3.32406 7.54876 3.7025 7.68721 3.9904 7.94833C4.2783 8.20945 4.45293 8.57262 4.47712 8.96054C4.50131 9.34847 4.37315 9.73052 4.11992 10.0254C3.86669 10.3202 3.50838 10.5046 3.12125 10.5393C2.72933 10.588 2.33411 10.4792 2.02224 10.2369C1.71036 9.99466 1.50727 9.6386 1.4575 9.24682C1.43049 9.05117 1.44259 8.8521 1.49311 8.66117C1.54362 8.47024 1.63155 8.29123 1.75178 8.13455C1.87202 7.97786 2.02217 7.8466 2.19352 7.74839C2.36488 7.65019 2.55403 7.58698 2.75 7.56244ZM5.98125 15.2212C5.91894 14.7267 5.71503 14.2608 5.39407 13.8796C5.07311 13.4983 4.64878 13.218 4.17218 13.0723C3.69559 12.9266 3.18704 12.9218 2.70777 13.0585C2.22851 13.1951 1.79896 13.4674 1.47084 13.8425C1.14273 14.2176 0.930044 14.6796 0.858394 15.1728C0.786744 15.6659 0.859184 16.1693 1.06699 16.6223C1.2748 17.0753 1.60912 17.4585 2.02969 17.7259C2.45026 17.9933 2.93915 18.1334 3.4375 18.1293H3.7675C4.44584 18.0354 5.05942 17.6768 5.47421 17.1319C5.889 16.587 6.07129 15.9001 5.98125 15.2212ZM3.56813 16.7406C3.40762 16.7668 3.24347 16.7604 3.08548 16.7218C2.9275 16.6832 2.77892 16.6131 2.64862 16.5158C2.51833 16.4185 2.40899 16.2959 2.32715 16.1553C2.24532 16.0148 2.19265 15.8591 2.17231 15.6978C2.15196 15.5364 2.16436 15.3726 2.20875 15.2162C2.25315 15.0597 2.32863 14.9138 2.43068 14.7872C2.53274 14.6605 2.65928 14.5558 2.80274 14.4791C2.94619 14.4025 3.10363 14.3556 3.26563 14.3412H3.41688C3.72892 14.3348 4.03136 14.4492 4.26104 14.6605C4.49071 14.8719 4.62984 15.1638 4.64936 15.4752C4.66889 15.7867 4.56729 16.0937 4.36581 16.3321C4.16432 16.5704 3.87853 16.7217 3.56813 16.7543V16.7406ZM7.98875 16.9399C7.36132 17.0256 6.79294 17.3551 6.40684 17.857C6.02074 18.3589 5.84807 18.9928 5.92625 19.6212C5.99561 20.1928 6.26878 20.7202 6.69562 21.1066C7.12247 21.4931 7.67435 21.7126 8.25 21.7249H8.55938C9.17233 21.6229 9.72204 21.2876 10.0934 20.7894C10.4648 20.2912 10.629 19.6686 10.5517 19.0521C10.4744 18.4355 10.1616 17.8727 9.67874 17.4816C9.19588 17.0905 8.58044 16.9013 7.96125 16.9537L7.98875 16.9399ZM8.415 20.3774C8.1415 20.4112 7.8658 20.3349 7.64855 20.1653C7.4313 19.9958 7.2903 19.7469 7.25657 19.4734C7.22283 19.1999 7.29913 18.9242 7.46868 18.7069C7.63822 18.4897 7.88712 18.3487 8.16063 18.3149H8.29125C8.51779 18.3139 8.73812 18.3889 8.91688 18.5281C9.07493 18.6538 9.19259 18.8232 9.25525 19.0151C9.31792 19.2071 9.32283 19.4133 9.26938 19.608C9.21594 19.8028 9.10648 19.9776 8.9546 20.1107C8.80271 20.2438 8.61509 20.3294 8.415 20.3568V20.3774Z" fill="white"/>
</svg>
